<svg width="75" height="92" viewBox="0 0 75 92" fill="none" xmlns="http://www.w3.org/2000/svg">
<g filter="url(#filter0_d)">
<path d="M49.916 27.0967C50.209 27.3896 50.375 27.7852 50.375 28.2002V58.3125C50.375 59.1768 49.6768 59.875 48.8125 59.875H17.5625C16.6982 59.875 16 59.1768 16 58.3125V17.6875C16 16.8232 16.6982 16.125 17.5625 16.125H38.2998C38.7148 16.125 39.1152 16.291 39.4082 16.584L49.916 27.0967ZM46.7715 28.918L37.582 19.7285V28.918H46.7715ZM39.1064 44.1162C38.3652 44.0918 37.5771 44.1489 36.6821 44.2607C35.4956 43.5288 34.6968 42.5234 34.1294 41.0464L34.1816 40.8325L34.2422 40.5796C34.4521 39.6943 34.5649 39.0483 34.5986 38.397C34.624 37.9053 34.5967 37.4517 34.5093 37.0312C34.3481 36.1235 33.7061 35.5928 32.897 35.5601C32.1426 35.5293 31.4492 35.9507 31.272 36.6035C30.9834 37.6592 31.1523 39.0483 31.7642 41.4175C30.9849 43.2754 29.9551 45.4536 29.2642 46.6685C28.3418 47.144 27.6235 47.5767 27.02 48.0562C26.2241 48.6895 25.7271 49.3403 25.5903 50.0239C25.5239 50.3408 25.624 50.7549 25.852 51.0942C26.1108 51.479 26.5005 51.729 26.9678 51.7651C28.147 51.8564 29.5962 50.6406 31.1963 47.895C31.3569 47.8413 31.5269 47.7847 31.7344 47.7144L32.3154 47.5181C32.6831 47.394 32.9497 47.3052 33.2134 47.2197C34.356 46.8477 35.2202 46.6128 36.0063 46.479C37.3726 47.2105 38.9517 47.6899 40.0151 47.6899C40.8931 47.6899 41.4863 47.2349 41.7007 46.5186C41.8887 45.8897 41.7397 45.1602 41.3354 44.7568C40.9175 44.3462 40.1489 44.1499 39.1064 44.1162ZM26.9976 50.3867V50.3691L27.0039 50.3525C27.0753 50.1678 27.1671 49.9916 27.2773 49.8271C27.4863 49.5059 27.7739 49.168 28.1304 48.8081C28.3218 48.6152 28.521 48.4272 28.7549 48.2163C28.8071 48.1694 29.1411 47.8721 29.2036 47.8135L29.749 47.3057L29.3525 47.937C28.751 48.896 28.207 49.5864 27.7412 50.0366C27.5698 50.2026 27.4189 50.3247 27.2969 50.4033C27.2566 50.4302 27.2139 50.4534 27.1694 50.4727C27.1494 50.481 27.1318 50.4858 27.1143 50.4873C27.0957 50.4897 27.0769 50.4871 27.0596 50.48C27.0412 50.4723 27.0255 50.4593 27.0145 50.4427C27.0034 50.4261 26.9976 50.4066 26.9976 50.3867ZM33.147 39.7285L33.0366 39.9238L32.9683 39.71C32.8169 39.23 32.7056 38.5068 32.6748 37.8545C32.6396 37.1123 32.6987 36.667 32.9331 36.667C33.2622 36.667 33.4131 37.1943 33.4248 37.9878C33.4355 38.6851 33.3257 39.4106 33.1465 39.7285H33.147ZM32.8633 42.583L32.938 42.3853L33.04 42.5708C33.6108 43.6079 34.3516 44.4731 35.166 45.0762L35.3418 45.2061L35.1274 45.25C34.3301 45.415 33.5874 45.6631 32.5718 46.0728C32.6777 46.0298 31.5161 46.5054 31.2222 46.6182L30.9658 46.7163L31.1025 46.478C31.7056 45.4282 32.2627 44.1675 32.8628 42.583H32.8633ZM40.5596 46.3066C40.1758 46.458 39.3496 46.3228 37.895 45.7017L37.5259 45.5444L37.9263 45.5151C39.064 45.4307 39.8696 45.4932 40.3394 45.665C40.5395 45.7383 40.6729 45.8306 40.7319 45.936C40.763 45.986 40.7735 46.046 40.7611 46.1035C40.7487 46.161 40.7144 46.2115 40.6655 46.2441C40.6345 46.2715 40.5985 46.2927 40.5596 46.3066Z" fill="url(#paint0_linear)"/>
</g>
<defs>
<filter id="filter0_d" x="-8" y="0.125" width="82.375" height="91.75" filterUnits="userSpaceOnUse" color-interpolation-filters="sRGB">
<feFlood flood-opacity="0" result="BackgroundImageFix"/>
<feColorMatrix in="SourceAlpha" type="matrix" values="0 0 0 0 0 0 0 0 0 0 0 0 0 0 0 0 0 0 127 0" result="hardAlpha"/>
<feOffset dy="8"/>
<feGaussianBlur stdDeviation="12"/>
<feComposite in2="hardAlpha" operator="out"/>
<feColorMatrix type="matrix" values="0 0 0 0 0.101961 0 0 0 0 0.788235 0 0 0 0 0.854902 0 0 0 0.56 0"/>
<feBlend mode="normal" in2="BackgroundImageFix" result="effect1_dropShadow"/>
<feBlend mode="normal" in="SourceGraphic" in2="effect1_dropShadow" result="shape"/>
</filter>
<linearGradient id="paint0_linear" x1="28.2666" y1="25.2396" x2="58.688" y2="29.8317" gradientUnits="userSpaceOnUse">
<stop stop-color="#24B9F2"/>
<stop offset="1" stop-color="#58F0F0"/>
</linearGradient>
</defs>
</svg>
